# xmcd
#
# Track frame offsets: 
#        150
#        11595
#        24684
#        34503
#        49446
#        62252
#        74649
#        88695
#        105254
#
# Disc length: 1646 seconds
#
# Revision: 0
# Processed by: cddbd v1.5.2PL0 Copyright (c) Steve Scherf et al.
# Submitted via: ExactAudioCopy v1.3
#
DISCID=6e066c09
DTITLE=The Oak Ridge Boys - 17th Avenue Revival
DYEAR=2018
DGENRE=Gospel
TTITLE0=Brand New Star
TTITLE1=There Will Be Light
TTITLE2=God's Got It
TTITLE3=I'd Rather Have Jesus
TTITLE4=Walk In Jerusalem
TTITLE5=Where He Leads Me I Will Follow
TTITLE6=Pray To Jesus
TTITLE7=If I Die
TTITLE8=Let It Shine On Me
EXTD=
EXTT0=
EXTT1=
EXTT2=
EXTT3=
EXTT4=
EXTT5=
EXTT6=
EXTT7=
EXTT8=
PLAYORDER=
